<svg xmlns="http://www.w3.org/2000/svg" width="48" height="48" fill="none"><path stroke="#0F2E4A" stroke-linecap="round" stroke-linejoin="round" stroke-width="2" d="m16.5 24 5 5 10-10m-25-7A5.5 5.5 0 0 1 12 6.5h2.5a5.5 5.5 0 0 0 3.875-1.6l1.75-1.75a5.5 5.5 0 0 1 7.8 0l1.75 1.75a5.497 5.497 0 0 0 3.875 1.6h2.5a5.5 5.5 0 0 1 5.5 5.5v2.5c0 1.45.575 2.845 1.6 3.875l1.75 1.75a5.502 5.502 0 0 1 0 7.8l-1.75 1.75a5.5 5.5 0 0 0-1.6 3.875v2.5a5.5 5.5 0 0 1-5.5 5.5h-2.5a5.5 5.5 0 0 0-3.875 1.6l-1.75 1.75a5.501 5.501 0 0 1-7.8 0l-1.75-1.75a5.5 5.5 0 0 0-3.875-1.6H12a5.5 5.5 0 0 1-5.5-5.5v-2.5a5.5 5.5 0 0 0-1.6-3.875l-1.75-1.75a5.5 5.5 0 0 1 0-7.8l1.75-1.75A5.5 5.5 0 0 0 6.5 14.5V12Z"/></svg>