<svg xmlns="http://www.w3.org/2000/svg" width="177" height="54" fill="none"><path fill="#0F2E4A" d="M80.12 35.504c-1.992 0-3.84-.312-5.544-.936-1.704-.648-3.18-1.56-4.428-2.736a12.846 12.846 0 0 1-2.88-4.14c-.696-1.608-1.044-3.372-1.044-5.292s.348-3.672 1.044-5.256c.696-1.608 1.668-3 2.916-4.176 1.248-1.176 2.724-2.076 4.428-2.7 1.728-.648 3.612-.972 5.652-.972 2.376 0 4.5.396 6.372 1.188 1.872.792 3.42 1.932 4.644 3.42l-4.536 4.104c-.864-.936-1.8-1.632-2.808-2.088-.984-.48-2.088-.72-3.312-.72-1.08 0-2.064.168-2.952.504a6.094 6.094 0 0 0-2.268 1.476 6.748 6.748 0 0 0-1.476 2.268c-.336.864-.504 1.848-.504 2.952 0 1.056.168 2.028.504 2.916.36.888.852 1.656 1.476 2.304a6.834 6.834 0 0 0 2.232 1.476c.888.336 1.86.504 2.916.504a9.728 9.728 0 0 0 3.096-.504c1.008-.36 2.028-.96 3.06-1.8l3.996 5.004c-1.44 1.032-3.108 1.824-5.004 2.376-1.896.552-3.756.828-5.58.828Zm4.284-4.14V21.86h6.3V32.3l-6.3-.936ZM93.099 35V15.488h6.84V35H93.1Zm3.42-21.672c-1.248 0-2.256-.348-3.024-1.044-.768-.696-1.152-1.56-1.152-2.592s.384-1.896 1.152-2.592c.768-.696 1.776-1.044 3.024-1.044s2.256.336 3.024 1.008c.768.648 1.152 1.488 1.152 2.52 0 1.08-.384 1.98-1.152 2.7-.744.696-1.752 1.044-3.024 1.044ZM102.584 35V8.288h6.84V35h-6.84Zm21.401 0v-3.636l-.468-.9v-6.696c0-1.08-.336-1.908-1.008-2.484-.648-.6-1.692-.9-3.132-.9-.936 0-1.884.156-2.844.468-.96.288-1.776.696-2.448 1.224l-2.304-4.644c1.104-.72 2.424-1.272 3.96-1.656a18.295 18.295 0 0 1 4.644-.612c3.168 0 5.616.732 7.344 2.196 1.752 1.44 2.628 3.708 2.628 6.804V35h-6.372Zm-5.76.324c-1.56 0-2.88-.264-3.96-.792s-1.908-1.248-2.484-2.16c-.552-.912-.828-1.932-.828-3.06 0-1.2.3-2.232.9-3.096.624-.888 1.572-1.56 2.844-2.016 1.272-.48 2.916-.72 4.932-.72h4.608v3.564h-3.672c-1.104 0-1.884.18-2.34.54-.432.36-.648.84-.648 1.44s.228 1.08.684 1.44c.456.36 1.08.54 1.872.54.744 0 1.416-.18 2.016-.54.624-.384 1.08-.96 1.368-1.728l.936 2.52c-.36 1.344-1.068 2.364-2.124 3.06-1.032.672-2.4 1.008-4.104 1.008Zm40.066-20.16c1.512 0 2.856.312 4.032.936 1.2.6 2.136 1.536 2.808 2.808.696 1.272 1.044 2.916 1.044 4.932V35h-6.84V24.956c0-1.392-.264-2.4-.792-3.024-.528-.648-1.248-.972-2.16-.972-.648 0-1.236.156-1.764.468-.528.312-.936.792-1.224 1.44-.288.624-.432 1.44-.432 2.448V35h-6.84V24.956c0-1.392-.264-2.4-.792-3.024-.504-.648-1.224-.972-2.16-.972-.672 0-1.272.156-1.8.468-.504.312-.912.792-1.224 1.44-.288.624-.432 1.44-.432 2.448V35h-6.84V15.488h6.516v5.436l-1.296-1.548c.72-1.392 1.704-2.436 2.952-3.132 1.248-.72 2.64-1.08 4.176-1.08 1.752 0 3.288.456 4.608 1.368 1.344.888 2.244 2.28 2.7 4.176l-2.232-.468c.696-1.584 1.74-2.82 3.132-3.708 1.416-.912 3.036-1.368 4.86-1.368ZM71.057 41.273h1.261l2.966 7.244h.102l2.966-7.244h1.262V50h-.989v-6.63h-.085L75.812 50h-.954l-2.727-6.63h-.085V50h-.99v-8.727ZM85.534 50v-5.625h-1.739c-.392 0-.7.09-.925.273-.224.181-.336.431-.336.75 0 .312.1.558.302.737.205.179.485.268.84.268h2.113v.938h-2.113c-.443 0-.826-.078-1.147-.235a1.715 1.715 0 0 1-.741-.669c-.173-.292-.26-.639-.26-1.04 0-.403.091-.75.273-1.039a1.77 1.77 0 0 1 .78-.67c.34-.155.745-.233 1.214-.233h2.693V50h-.954Zm-4.364 0 1.858-3.256h1.091L82.261 50h-1.09Zm11.204-6.545v.937H89.34V50h-1.005v-6.545h4.04ZM93.842 50v-6.545h1.006V46.3h.665l2.352-2.846h1.296l-2.642 3.153L99.195 50h-1.296l-2.148-2.761h-.903V50h-1.006Zm8.835.136c-.591 0-1.109-.14-1.555-.422a2.868 2.868 0 0 1-1.04-1.18c-.247-.506-.37-1.096-.37-1.773 0-.681.123-1.277.37-1.785.25-.509.597-.904 1.04-1.185.446-.281.964-.422 1.555-.422s1.108.14 1.551.422a2.82 2.82 0 0 1 1.04 1.185c.25.508.375 1.104.375 1.785 0 .676-.125 1.267-.375 1.773-.247.506-.594.9-1.04 1.18-.443.282-.96.422-1.551.422Zm0-.903c.449 0 .818-.115 1.108-.345.29-.23.504-.533.644-.908a3.48 3.48 0 0 0 .208-1.219c0-.437-.069-.845-.208-1.223a2.066 2.066 0 0 0-.644-.916c-.29-.233-.659-.35-1.108-.35-.449 0-.818.117-1.108.35-.29.233-.504.538-.643.916a3.515 3.515 0 0 0-.209 1.223c0 .438.07.844.209 1.22.139.374.353.677.643.907.29.23.659.345 1.108.345Zm7.876.767v-6.545h5.148V50h-1.006v-5.608h-3.136V50h-1.006Zm9.644.136c-.591 0-1.11-.14-1.556-.422a2.866 2.866 0 0 1-1.039-1.18c-.248-.506-.371-1.096-.371-1.773 0-.681.123-1.277.371-1.785a2.86 2.86 0 0 1 1.039-1.185c.446-.281.965-.422 1.556-.422.591 0 1.108.14 1.551.422.446.281.792.676 1.04 1.185.25.508.375 1.104.375 1.785 0 .676-.125 1.267-.375 1.773-.248.506-.594.9-1.04 1.18-.443.282-.96.422-1.551.422Zm0-.903c.449 0 .818-.115 1.108-.345.289-.23.504-.533.643-.908a3.48 3.48 0 0 0 .209-1.219c0-.437-.07-.845-.209-1.223a2.064 2.064 0 0 0-.643-.916c-.29-.233-.659-.35-1.108-.35-.449 0-.818.117-1.108.35-.29.233-.504.538-.644.916a3.515 3.515 0 0 0-.208 1.223c0 .438.069.844.208 1.22.14.374.354.677.644.907.29.23.659.345 1.108.345Zm3.802 2.642v-2.813h.545c.134-.139.249-.29.346-.451.096-.162.18-.354.251-.575.074-.225.136-.498.187-.819.052-.323.097-.714.137-1.172l.221-2.59h4.16v5.608h1.005v2.812h-1.005V50h-4.841v1.875h-1.006Zm1.687-2.813h3.154v-4.67h-2.216l-.171 1.653a18.546 18.546 0 0 1-.264 1.794c-.105.512-.272.92-.503 1.224Zm14.256-2.795v.938h-3.614v-.938h3.614Zm-3.375-2.813V50h-1.006v-6.545h1.006Zm4.142 0V50h-1.006v-6.545h1.006Zm4.496 6.682c-.591 0-1.11-.14-1.556-.422a2.868 2.868 0 0 1-1.04-1.18c-.247-.506-.37-1.096-.37-1.773 0-.681.123-1.277.37-1.785.25-.509.597-.904 1.04-1.185.446-.281.965-.422 1.556-.422.59 0 1.108.14 1.551.422.446.281.792.676 1.039 1.185.25.508.375 1.104.375 1.785 0 .676-.125 1.267-.375 1.773-.247.506-.593.9-1.039 1.18-.443.282-.961.422-1.551.422Zm0-.903c.448 0 .818-.115 1.107-.345.29-.23.505-.533.644-.908a3.48 3.48 0 0 0 .209-1.219c0-.437-.07-.845-.209-1.223a2.058 2.058 0 0 0-.644-.916c-.289-.233-.659-.35-1.107-.35-.449 0-.819.117-1.108.35-.29.233-.505.538-.644.916a3.515 3.515 0 0 0-.209 1.223c0 .438.07.844.209 1.22.139.374.354.677.644.907.289.23.659.345 1.108.345Zm8.54-5.778v.937h-3.034V50h-1.005v-6.545h4.039Zm3.055 6.698c-.415 0-.791-.078-1.13-.234a1.939 1.939 0 0 1-.805-.686c-.199-.301-.298-.665-.298-1.091 0-.375.074-.679.221-.912a1.57 1.57 0 0 1 .593-.554c.247-.133.52-.233.818-.298.301-.068.604-.122.908-.162.397-.051.72-.09.967-.115.25-.029.432-.075.545-.14.117-.066.175-.18.175-.342v-.034c0-.42-.115-.747-.345-.98-.227-.233-.573-.35-1.036-.35-.48 0-.856.106-1.129.316-.273.21-.464.435-.575.673l-.955-.34c.171-.398.398-.708.682-.93.287-.224.6-.38.938-.468.34-.091.676-.137 1.005-.137.21 0 .452.026.725.077.275.048.541.15.797.303.258.153.473.384.643.694.17.31.256.725.256 1.245V50h-1.006v-.886h-.051a1.768 1.768 0 0 1-.341.456 1.97 1.97 0 0 1-.635.413c-.264.114-.587.17-.967.17Zm.153-.903c.398 0 .733-.078 1.006-.234a1.597 1.597 0 0 0 .835-1.385v-.92c-.043.05-.136.097-.281.14-.142.04-.307.075-.495.106a22.013 22.013 0 0 1-.963.128c-.261.034-.505.09-.733.166a1.263 1.263 0 0 0-.545.337c-.136.148-.205.35-.205.605 0 .35.13.614.388.793.262.176.593.264.993.264Zm8.262-.614 2.284-5.181h.954L165.624 50h-.818l-2.779-6.545h.938l2.25 5.181Zm-2.574-5.181V50h-1.006v-6.545h1.006ZM167.789 50v-6.545h1.005V50h-1.005Zm3.852-1.483 3.153-5.063h1.159V50h-1.005v-5.063L171.811 50h-1.176v-6.545h1.006v5.062Z"/><path stroke="#C35815" stroke-width="9" d="M29.293 10.094c-32.201 0-32.429 37.406 0 37.406 29.212 0 21.886-17.581 4.206-17.581M37.403 20.052V10"/></svg>